<svg width="86" height="32" viewBox="0 0 86 32" fill="none" xmlns="http://www.w3.org/2000/svg">
<g filter="url(#filter0_d)">
<path d="M4.128 1.2V18H16.056V14.496H7.944V1.2H4.128ZM16.8537 11.76C16.8537 13.608 17.4057 15.168 18.5337 16.44C19.6617 17.688 21.0777 18.312 22.7577 18.312C24.0537 18.312 25.2057 17.928 26.2137 17.136V18H29.7897V5.52H26.2137V6.36C25.1817 5.592 24.0297 5.208 22.7577 5.208C21.0777 5.208 19.6617 5.832 18.5337 7.08C17.4057 8.328 16.8537 9.888 16.8537 11.76ZM23.3817 8.76C24.1497 8.76 24.7977 9.048 25.3497 9.624C25.9017 10.2 26.1657 10.896 26.1657 11.736C26.1657 13.464 24.9177 14.76 23.3817 14.76C21.8217 14.76 20.5977 13.464 20.5977 11.736C20.5977 10.08 21.8217 8.76 23.3817 8.76ZM31.6158 18H35.2158V10.944C35.2158 9.576 36.1998 8.544 37.5198 8.544C38.8398 8.544 39.7998 9.576 39.7998 10.944V18H43.3998V9.984C43.3998 8.616 42.9438 7.488 42.0078 6.576C41.0958 5.664 39.9678 5.208 38.6238 5.208C37.1838 5.208 36.0558 5.736 35.2158 6.792V5.52H31.6158V18ZM44.8365 11.76C44.8365 13.608 45.3885 15.168 46.5165 16.44C47.6445 17.688 49.0605 18.312 50.7405 18.312C52.0365 18.312 53.1885 17.928 54.1965 17.136V18H57.7725V-1.43051e-06H54.1965V6.36C53.1645 5.592 52.0125 5.208 50.7405 5.208C49.0605 5.208 47.6445 5.832 46.5165 7.08C45.3885 8.328 44.8365 9.888 44.8365 11.76ZM51.3645 8.76C52.1325 8.76 52.7805 9.048 53.3325 9.624C53.8845 10.2 54.1485 10.896 54.1485 11.736C54.1485 13.464 52.9005 14.76 51.3645 14.76C49.8045 14.76 48.5805 13.464 48.5805 11.736C48.5805 10.08 49.8045 8.76 51.3645 8.76ZM63.1986 18V-1.43051e-06H59.5986V18H63.1986ZM68.8156 18.096C68.3596 19.344 67.3756 19.968 65.8156 19.968H65.3596V23.4H65.7916C68.8636 23.4 70.6636 22.176 71.8156 19.296L77.1196 5.52H73.3996L70.5916 13.224L67.8796 5.52H64.1596L68.8876 17.904L68.8156 18.096Z" fill="#213053"/>
<path d="M79.7458 14.232C78.5938 14.232 77.7298 15.096 77.7298 16.272C77.7298 17.448 78.5938 18.312 79.7458 18.312C80.9218 18.312 81.8098 17.448 81.8098 16.272C81.8098 15.096 80.9218 14.232 79.7458 14.232Z" fill="#F18B62"/>
</g>
<defs>
<filter id="filter0_d" x="0.12793" y="0" width="85.6818" height="31.4" filterUnits="userSpaceOnUse" color-interpolation-filters="sRGB">
<feFlood flood-opacity="0" result="BackgroundImageFix"/>
<feColorMatrix in="SourceAlpha" type="matrix" values="0 0 0 0 0 0 0 0 0 0 0 0 0 0 0 0 0 0 127 0"/>
<feOffset dy="4"/>
<feGaussianBlur stdDeviation="2"/>
<feColorMatrix type="matrix" values="0 0 0 0 0 0 0 0 0 0 0 0 0 0 0 0 0 0 0.25 0"/>
<feBlend mode="normal" in2="BackgroundImageFix" result="effect1_dropShadow"/>
<feBlend mode="normal" in="SourceGraphic" in2="effect1_dropShadow" result="shape"/>
</filter>
</defs>
</svg>
